<svg width="1210" height="197" viewBox="0 0 1210 197" fill="none" xmlns="http://www.w3.org/2000/svg">
<path fill-rule="evenodd" clip-rule="evenodd" d="M144.099 0L143.364 1.85463C168.684 13.9871 196.464 41.3234 197.813 84.4879C198.744 114.281 187.01 135.114 173.698 148.552C167.035 155.279 159.975 160.153 153.91 163.363C147.805 166.594 142.817 168.083 140.291 168.162L140.322 169.161L140.353 170.161C168.161 169.292 185.789 160.055 196.288 146.303C206.757 132.591 210.002 114.562 209.433 96.3563C207.751 42.5362 171.195 8.63281 144.099 0ZM140.345 169.16C140.338 169.161 140.33 169.161 140.322 169.161C140.33 169.161 140.338 169.161 140.345 169.16ZM32.7622 30.6797L33.9285 32.2895C57.8175 18.7118 93.2789 14.2875 123.195 25.6778C153.012 37.0303 177.427 64.1316 179.302 113.896L181.288 114.02C186.108 84.4904 181.604 62.3213 171.435 46.2358C161.268 30.154 145.516 20.2778 128.073 15.1807C110.638 10.0857 91.4701 9.75043 74.3593 12.7757C57.2669 15.7976 42.1093 22.1948 32.7622 30.6797ZM9.58407 152.573L11.4904 151.99C-0.0716104 99.4526 18.9831 65.9633 45.1027 51.3267C71.3247 36.6328 104.722 40.8349 122.335 63.8151L122.563 64.1124L122.929 64.1867L122.929 64.1867L122.93 64.1868L122.93 64.1869L122.938 64.1885L122.975 64.1964L123.029 64.2082L123.093 64.2228L123.132 64.2317C123.273 64.2642 123.484 64.3152 123.758 64.3873C124.307 64.5315 125.105 64.7599 126.092 65.0937C128.068 65.7616 130.79 66.8492 133.763 68.5235C139.711 71.8735 146.623 77.5476 150.617 86.8786L151.982 90.07L152.524 86.641L151.536 86.4851C152.524 86.641 152.524 86.6403 152.524 86.6394L152.524 86.6374L152.525 86.6319L152.527 86.6157L152.531 86.5924L152.535 86.5621C152.541 86.5171 152.549 86.4538 152.558 86.3729C152.576 86.2113 152.597 85.9795 152.614 85.6852C152.647 85.0966 152.662 84.2562 152.593 83.223C152.453 81.1574 151.973 78.3134 150.615 75.1722C147.915 68.9266 141.807 61.648 128.378 56.9376C123.809 43.3183 111.076 34.9367 95.5259 31.8154C79.7836 28.6554 60.9773 30.8328 44.2387 38.5202C27.4891 46.2126 12.7511 59.4514 5.24875 78.4618C-2.25627 97.4789 -2.46874 122.139 9.58407 152.573ZM110.254 60.6626L109.597 58.8027C98.606 60.7377 86.5385 57.4703 76.8694 51.0047L75.4713 52.375C78.5251 57.1463 83.0766 60.7527 88.3941 62.64C88.2951 62.9645 88.2409 63.3033 88.2351 63.647L88.235 63.6555V63.664C88.235 65.0758 89.0557 66.245 90.17 67.0197C91.2869 67.7961 92.7741 68.2422 94.3638 68.2422C95.9559 68.2422 97.4471 67.7899 98.5669 67.0126C99.6306 66.2743 100.436 65.1764 100.507 63.8541C103.926 63.4155 107.233 62.3337 110.254 60.6626ZM148.603 92.6497L149.96 91.2256C145.795 85.4833 140.314 80.824 133.976 77.639C127.639 74.4549 120.632 72.8372 113.541 72.9215C99.1269 72.9234 84.7656 79.7784 74.0208 90.6038C63.2697 101.436 56.0705 116.311 56.0705 132.445C56.0705 171.313 89.8763 196.104 126.548 196.104C156.993 196.104 182.85 184.924 192.147 166.451L190.525 165.317C179.743 176.815 164.477 181.083 138.535 181.083C104.357 181.083 78.3472 157.21 78.3472 131.77C78.3472 106.003 95.7744 83.3304 120.266 83.3304C127.336 83.3304 132.28 84.2805 136.497 85.8957C140.735 87.5187 144.286 89.828 148.603 92.6497Z" fill="#236192"/>
<path d="M247.496 142.903V53.3032H293.32C305.096 53.3032 313.885 55.4792 319.688 59.8312C325.49 64.0979 328.392 69.7299 328.392 76.7272C328.392 81.3352 327.154 85.3886 324.68 88.8872C322.29 92.3006 318.877 95.0312 314.44 97.0792C310.088 99.0419 304.882 100.023 298.824 100.023L301.384 93.8792C307.698 93.8792 313.202 94.8606 317.896 96.8232C322.589 98.7006 326.216 101.474 328.776 105.143C331.421 108.727 332.744 113.122 332.744 118.327C332.744 126.093 329.586 132.151 323.272 136.503C317.042 140.77 307.912 142.903 295.88 142.903H247.496ZM272.584 124.599H293.832C298.184 124.599 301.469 123.874 303.688 122.423C305.992 120.887 307.144 118.583 307.144 115.511C307.144 112.439 305.992 110.178 303.688 108.727C301.469 107.191 298.184 106.423 293.832 106.423H270.792V88.8872H289.992C294.258 88.8872 297.458 88.1619 299.592 86.7112C301.725 85.2606 302.792 83.0846 302.792 80.1832C302.792 77.2819 301.725 75.1486 299.592 73.7832C297.458 72.3326 294.258 71.6072 289.992 71.6072H272.584V124.599Z" fill="#236192"/>
<path d="M365.327 87.9912H406.927V106.935H365.327V87.9912ZM367.119 123.319H413.967V142.903H342.031V53.3032H412.303V72.8872H367.119V123.319Z" fill="#236192"/>
<path d="M424.191 142.903V53.3032H445.055L494.463 112.951H484.607V53.3032H509.439V142.903H488.575L439.167 83.2552H449.023V142.903H424.191Z" fill="#236192"/>
<path d="M546.772 87.9912H588.372V106.935H546.772V87.9912ZM548.564 123.319H595.412V142.903H523.476V53.3032H593.748V72.8872H548.564V123.319Z" fill="#236192"/>
<path d="M629.188 92.5992H670.532V112.183H629.188V92.5992ZM630.98 142.903H605.636V53.3032H675.908V72.8872H630.98V142.903Z" fill="#236192"/>
<path d="M683.921 142.903V53.3032H709.265V142.903H683.921Z" fill="#236192"/>
<path d="M742.528 142.903V73.3992H715.008V53.3032H795.264V73.3992H767.872V142.903H742.528Z" fill="#236192"/>
<path d="M832.104 144.695C824.765 144.695 817.682 143.799 810.856 142.007C804.114 140.13 798.61 137.741 794.344 134.839L802.664 116.151C806.674 118.711 811.282 120.845 816.488 122.551C821.778 124.173 827.026 124.983 832.232 124.983C835.73 124.983 838.546 124.685 840.68 124.087C842.813 123.405 844.349 122.551 845.288 121.527C846.312 120.418 846.824 119.138 846.824 117.687C846.824 115.639 845.885 114.018 844.008 112.823C842.13 111.629 839.698 110.647 836.712 109.879C833.725 109.111 830.397 108.343 826.728 107.575C823.144 106.807 819.517 105.826 815.848 104.631C812.264 103.437 808.978 101.901 805.992 100.023C803.005 98.0606 800.573 95.5432 798.696 92.4712C796.818 89.3139 795.88 85.3459 795.88 80.5672C795.88 75.1912 797.33 70.3272 800.232 65.9752C803.218 61.6232 807.656 58.1246 813.544 55.4792C819.432 52.8339 826.77 51.5112 835.56 51.5112C841.448 51.5112 847.208 52.1939 852.84 53.5592C858.557 54.8392 863.634 56.7592 868.072 59.3192L860.264 78.1352C855.997 75.8312 851.773 74.1246 847.592 73.0152C843.41 71.8206 839.357 71.2232 835.432 71.2232C831.933 71.2232 829.117 71.6072 826.984 72.3752C824.85 73.0579 823.314 73.9966 822.376 75.1912C821.437 76.3859 820.968 77.7512 820.968 79.2872C820.968 81.2499 821.864 82.8286 823.656 84.0232C825.533 85.1326 827.965 86.0712 830.952 86.8392C834.024 87.5219 837.352 88.2472 840.936 89.0152C844.605 89.7832 848.232 90.7646 851.816 91.9592C855.485 93.0686 858.813 94.6046 861.8 96.5672C864.786 98.4446 867.176 100.962 868.968 104.119C870.845 107.191 871.784 111.074 871.784 115.767C871.784 120.973 870.29 125.794 867.304 130.231C864.402 134.583 860.008 138.082 854.12 140.727C848.317 143.373 840.978 144.695 832.104 144.695Z" fill="#236192"/>
<path d="M891.239 144.055C887.143 144.055 883.687 142.69 880.871 139.959C878.055 137.229 876.647 133.773 876.647 129.591C876.647 125.239 878.055 121.783 880.871 119.223C883.687 116.578 887.143 115.255 891.239 115.255C895.335 115.255 898.791 116.578 901.607 119.223C904.423 121.783 905.831 125.239 905.831 129.591C905.831 133.773 904.423 137.229 901.607 139.959C898.791 142.69 895.335 144.055 891.239 144.055Z" fill="#236192"/>
<path d="M956.733 144.695C949.65 144.695 943.079 143.586 937.021 141.367C931.047 139.063 925.842 135.821 921.405 131.639C917.053 127.458 913.639 122.551 911.165 116.919C908.69 111.202 907.453 104.93 907.453 98.1032C907.453 91.2766 908.69 85.0472 911.165 79.4152C913.639 73.6979 917.053 68.7486 921.405 64.5672C925.842 60.3859 931.047 57.1859 937.021 54.9672C943.079 52.6632 949.65 51.5112 956.733 51.5112C965.01 51.5112 972.391 52.9619 978.877 55.8632C985.447 58.7646 990.909 62.9459 995.261 68.4072L979.133 82.9992C976.231 79.5859 973.031 76.9832 969.533 75.1912C966.119 73.3992 962.279 72.5032 958.013 72.5032C954.343 72.5032 950.973 73.1006 947.901 74.2952C944.829 75.4899 942.183 77.2392 939.965 79.5432C937.831 81.7619 936.125 84.4499 934.845 87.6072C933.65 90.7646 933.053 94.2632 933.053 98.1032C933.053 101.943 933.65 105.442 934.845 108.599C936.125 111.757 937.831 114.487 939.965 116.791C942.183 119.01 944.829 120.717 947.901 121.911C950.973 123.106 954.343 123.703 958.013 123.703C962.279 123.703 966.119 122.807 969.533 121.015C973.031 119.223 976.231 116.621 979.133 113.207L995.261 127.799C990.909 133.175 985.447 137.357 978.877 140.343C972.391 143.245 965.01 144.695 956.733 144.695Z" fill="#236192"/>
<path d="M1046.03 144.695C1038.86 144.695 1032.25 143.543 1026.19 141.239C1020.13 138.935 1014.84 135.693 1010.32 131.511C1005.88 127.245 1002.42 122.295 999.95 116.663C997.475 111.031 996.238 104.845 996.238 98.1032C996.238 91.3619 997.475 85.1752 999.95 79.5432C1002.42 73.9112 1005.88 69.0046 1010.32 64.8232C1014.84 60.5566 1020.13 57.2712 1026.19 54.9672C1032.25 52.6632 1038.86 51.5112 1046.03 51.5112C1053.28 51.5112 1059.9 52.6632 1065.87 54.9672C1071.93 57.2712 1077.18 60.5566 1081.61 64.8232C1086.05 69.0046 1089.51 73.9112 1091.98 79.5432C1094.54 85.1752 1095.82 91.3619 1095.82 98.1032C1095.82 104.845 1094.54 111.074 1091.98 116.791C1089.51 122.423 1086.05 127.33 1081.61 131.511C1077.18 135.693 1071.93 138.935 1065.87 141.239C1059.9 143.543 1053.28 144.695 1046.03 144.695ZM1046.03 123.703C1049.44 123.703 1052.6 123.106 1055.5 121.911C1058.49 120.717 1061.05 119.01 1063.18 116.791C1065.4 114.487 1067.11 111.757 1068.3 108.599C1069.58 105.442 1070.22 101.943 1070.22 98.1032C1070.22 94.1779 1069.58 90.6792 1068.3 87.6072C1067.11 84.4499 1065.4 81.7619 1063.18 79.5432C1061.05 77.2392 1058.49 75.4899 1055.5 74.2952C1052.6 73.1006 1049.44 72.5032 1046.03 72.5032C1042.62 72.5032 1039.42 73.1006 1036.43 74.2952C1033.53 75.4899 1030.97 77.2392 1028.75 79.5432C1026.62 81.7619 1024.91 84.4499 1023.63 87.6072C1022.43 90.6792 1021.84 94.1779 1021.84 98.1032C1021.84 101.943 1022.43 105.442 1023.63 108.599C1024.91 111.757 1026.62 114.487 1028.75 116.791C1030.97 119.01 1033.53 120.717 1036.43 121.911C1039.42 123.106 1042.62 123.703 1046.03 123.703Z" fill="#236192"/>
<path d="M1105.26 142.903V53.3032H1126.12L1163.24 114.231H1152.23L1188.33 53.3032H1209.19L1209.45 142.903H1186.15L1185.9 88.7592H1189.86L1162.86 134.071H1151.59L1123.82 88.7592H1128.68V142.903H1105.26Z" fill="#236192"/>
</svg>
