<svg xmlns="http://www.w3.org/2000/svg" xmlns:xlink="http://www.w3.org/1999/xlink" width="300" zoomAndPan="magnify" viewBox="0 0 224.87999 116.249996" height="155" preserveAspectRatio="xMidYMid meet" version="1.0"><defs><clipPath id="2ffa0b6142"><path d="M 98.128906 43.84375 L 108.800781 43.84375 L 108.800781 54.515625 L 98.128906 54.515625 Z M 98.128906 43.84375 " clip-rule="nonzero"/></clipPath><clipPath id="677287c2f1"><path d="M 103.464844 43.84375 L 105.160156 47.480469 L 108.800781 49.179688 L 105.160156 50.878906 L 103.464844 54.515625 L 101.765625 50.878906 L 98.128906 49.179688 L 101.765625 47.480469 Z M 103.464844 43.84375 " clip-rule="nonzero"/></clipPath><clipPath id="d8226f2cf5"><path d="M 0.128906 0.84375 L 10.800781 0.84375 L 10.800781 11.515625 L 0.128906 11.515625 Z M 0.128906 0.84375 " clip-rule="nonzero"/></clipPath><clipPath id="44fa158e2d"><path d="M 5.464844 0.84375 L 7.160156 4.480469 L 10.800781 6.179688 L 7.160156 7.878906 L 5.464844 11.515625 L 3.765625 7.878906 L 0.128906 6.179688 L 3.765625 4.480469 Z M 5.464844 0.84375 " clip-rule="nonzero"/></clipPath><clipPath id="b66ceb8c85"><rect x="0" width="11" y="0" height="12"/></clipPath><clipPath id="f967098a9a"><path d="M 84.695312 26.519531 L 139.839844 26.519531 L 139.839844 53.347656 L 84.695312 53.347656 Z M 84.695312 26.519531 " clip-rule="nonzero"/></clipPath><clipPath id="e991daf3d8"><path d="M 98.085938 53.347656 L 126.097656 53.347656 C 129.648438 53.347656 133.054688 51.9375 135.5625 49.425781 C 138.074219 46.914062 139.484375 43.507812 139.484375 39.957031 C 139.484375 36.40625 138.074219 33.003906 135.5625 30.492188 C 133.054688 27.980469 129.648438 26.570312 126.097656 26.570312 L 98.085938 26.570312 C 94.535156 26.570312 91.128906 27.980469 88.617188 30.492188 C 86.105469 33.003906 84.695312 36.40625 84.695312 39.957031 C 84.695312 43.507812 86.105469 46.914062 88.617188 49.425781 C 91.128906 51.9375 94.535156 53.347656 98.085938 53.347656 Z M 98.085938 53.347656 " clip-rule="nonzero"/></clipPath><clipPath id="753955b43f"><path d="M 87.617188 27.480469 L 136.796875 27.480469 L 136.796875 52.070312 L 87.617188 52.070312 Z M 87.617188 27.480469 " clip-rule="nonzero"/></clipPath><clipPath id="f0fd3b6df9"><path d="M 99.726562 52.070312 L 125.058594 52.070312 C 128.269531 52.070312 131.351562 50.792969 133.621094 48.523438 C 135.894531 46.253906 137.167969 43.171875 137.167969 39.960938 C 137.167969 36.75 135.894531 33.667969 133.621094 31.398438 C 131.351562 29.125 128.269531 27.851562 125.058594 27.851562 L 99.726562 27.851562 C 96.515625 27.851562 93.433594 29.125 91.164062 31.398438 C 88.890625 33.667969 87.617188 36.75 87.617188 39.960938 C 87.617188 43.171875 88.890625 46.253906 91.164062 48.523438 C 93.433594 50.792969 96.515625 52.070312 99.726562 52.070312 Z M 99.726562 52.070312 " clip-rule="nonzero"/></clipPath><clipPath id="e448642aa5"><path d="M 98.65625 44.371094 L 108.273438 44.371094 L 108.273438 53.988281 L 98.65625 53.988281 Z M 98.65625 44.371094 " clip-rule="nonzero"/></clipPath><clipPath id="a2f38cbc18"><path d="M 103.464844 44.371094 L 104.996094 47.648438 L 108.273438 49.179688 L 104.996094 50.710938 L 103.464844 53.988281 L 101.933594 50.710938 L 98.65625 49.179688 L 101.933594 47.648438 Z M 103.464844 44.371094 " clip-rule="nonzero"/></clipPath><clipPath id="7b9e771b2b"><path d="M 0.65625 0.371094 L 10.273438 0.371094 L 10.273438 9.988281 L 0.65625 9.988281 Z M 0.65625 0.371094 " clip-rule="nonzero"/></clipPath><clipPath id="509a5e10dc"><path d="M 5.464844 0.371094 L 6.996094 3.648438 L 10.273438 5.179688 L 6.996094 6.710938 L 5.464844 9.988281 L 3.933594 6.710938 L 0.65625 5.179688 L 3.933594 3.648438 Z M 5.464844 0.371094 " clip-rule="nonzero"/></clipPath><clipPath id="af4ec2ad56"><rect x="0" width="11" y="0" height="10"/></clipPath><clipPath id="81da42e48b"><path d="M 115.976562 43.84375 L 126.648438 43.84375 L 126.648438 54.515625 L 115.976562 54.515625 Z M 115.976562 43.84375 " clip-rule="nonzero"/></clipPath><clipPath id="86fa25f3d8"><path d="M 121.3125 43.84375 L 123.011719 47.480469 L 126.648438 49.179688 L 123.011719 50.878906 L 121.3125 54.515625 L 119.613281 50.878906 L 115.976562 49.179688 L 119.613281 47.480469 Z M 121.3125 43.84375 " clip-rule="nonzero"/></clipPath><clipPath id="c145bfd51f"><path d="M 0.976562 0.84375 L 11.648438 0.84375 L 11.648438 11.515625 L 0.976562 11.515625 Z M 0.976562 0.84375 " clip-rule="nonzero"/></clipPath><clipPath id="7317076eb3"><path d="M 6.3125 0.84375 L 8.011719 4.480469 L 11.648438 6.179688 L 8.011719 7.878906 L 6.3125 11.515625 L 4.613281 7.878906 L 0.976562 6.179688 L 4.613281 4.480469 Z M 6.3125 0.84375 " clip-rule="nonzero"/></clipPath><clipPath id="a928316f92"><rect x="0" width="12" y="0" height="12"/></clipPath><clipPath id="f56e9ef07a"><path d="M 116.503906 44.371094 L 126.121094 44.371094 L 126.121094 53.988281 L 116.503906 53.988281 Z M 116.503906 44.371094 " clip-rule="nonzero"/></clipPath><clipPath id="a64a03c1b3"><path d="M 121.3125 44.371094 L 122.84375 47.648438 L 126.121094 49.179688 L 122.84375 50.710938 L 121.3125 53.988281 L 119.78125 50.710938 L 116.503906 49.179688 L 119.78125 47.648438 Z M 121.3125 44.371094 " clip-rule="nonzero"/></clipPath><clipPath id="dc744b10b9"><path d="M 0.503906 0.371094 L 10.121094 0.371094 L 10.121094 9.988281 L 0.503906 9.988281 Z M 0.503906 0.371094 " clip-rule="nonzero"/></clipPath><clipPath id="df9779fc20"><path d="M 5.3125 0.371094 L 6.84375 3.648438 L 10.121094 5.179688 L 6.84375 6.710938 L 5.3125 9.988281 L 3.78125 6.710938 L 0.503906 5.179688 L 3.78125 3.648438 Z M 5.3125 0.371094 " clip-rule="nonzero"/></clipPath><clipPath id="0e750f2b9a"><rect x="0" width="11" y="0" height="10"/></clipPath><clipPath id="f25b7c045d"><path d="M 111.738281 15 L 201.90625 15 L 201.90625 105.097656 L 111.738281 105.097656 Z M 111.738281 15 " clip-rule="nonzero"/></clipPath><clipPath id="3ce76ee7aa"><path d="M 0.785156 53 L 40 53 L 40 90 L 0.785156 90 Z M 0.785156 53 " clip-rule="nonzero"/></clipPath><clipPath id="9e9b3d1017"><path d="M 61 41 L 90.90625 41 L 90.90625 75 L 61 75 Z M 61 41 " clip-rule="nonzero"/></clipPath><clipPath id="72558ddcd5"><path d="M 61 11 L 90.90625 11 L 90.90625 42 L 61 42 Z M 61 11 " clip-rule="nonzero"/></clipPath><clipPath id="5b04a37a78"><path d="M 28 0.0234375 L 76 0.0234375 L 76 23 L 28 23 Z M 28 0.0234375 " clip-rule="nonzero"/></clipPath><clipPath id="eeabd3539f"><rect x="0" width="91" y="0" height="91"/></clipPath><clipPath id="082a9cb015"><path d="M 113.046875 13.136719 L 200.980469 13.136719 L 200.980469 104 L 113.046875 104 Z M 113.046875 13.136719 " clip-rule="nonzero"/></clipPath><clipPath id="5fa0193814"><path d="M 0.046875 55 L 38 55 L 38 90.945312 L 0.046875 90.945312 Z M 0.046875 55 " clip-rule="nonzero"/></clipPath><clipPath id="e33d95802a"><path d="M 35 54 L 71 54 L 71 90.945312 L 35 90.945312 Z M 35 54 " clip-rule="nonzero"/></clipPath><clipPath id="7464619c8d"><path d="M 59 43 L 87.980469 43 L 87.980469 76 L 59 76 Z M 59 43 " clip-rule="nonzero"/></clipPath><clipPath id="82b26dc144"><path d="M 59 13 L 87.980469 13 L 87.980469 44 L 59 44 Z M 59 13 " clip-rule="nonzero"/></clipPath><clipPath id="17e2047b4a"><rect x="0" width="88" y="0" height="91"/></clipPath><clipPath id="2b71afd4a1"><path d="M 96.785156 63.410156 L 128.828125 63.410156 L 128.828125 79.804688 L 96.785156 79.804688 Z M 96.785156 63.410156 " clip-rule="nonzero"/></clipPath><clipPath id="3a9ff87f78"><path d="M 98.785156 64.429688 L 126.355469 64.429688 L 126.355469 78.585938 L 98.785156 78.585938 Z M 98.785156 64.429688 " clip-rule="nonzero"/></clipPath><clipPath id="7cc443d0a9"><path d="M 103.1875 67.683594 L 122.015625 67.683594 L 122.015625 77.378906 L 103.1875 77.378906 Z M 103.1875 67.683594 " clip-rule="nonzero"/></clipPath><clipPath id="de9a5d43c6"><path d="M 112.597656 67.683594 C 107.398438 67.683594 103.1875 69.851562 103.1875 72.53125 C 103.1875 75.210938 107.398438 77.378906 112.597656 77.378906 C 117.792969 77.378906 122.003906 75.210938 122.003906 72.53125 C 122.003906 69.851562 117.792969 67.683594 112.597656 67.683594 Z M 112.597656 67.683594 " clip-rule="nonzero"/></clipPath><clipPath id="5ebb1a15be"><path d="M 0.1875 0.683594 L 19.015625 0.683594 L 19.015625 10.378906 L 0.1875 10.378906 Z M 0.1875 0.683594 " clip-rule="nonzero"/></clipPath><clipPath id="8a7fe2b60c"><path d="M 9.597656 0.683594 C 4.398438 0.683594 0.1875 2.851562 0.1875 5.53125 C 0.1875 8.210938 4.398438 10.378906 9.597656 10.378906 C 14.792969 10.378906 19.003906 8.210938 19.003906 5.53125 C 19.003906 2.851562 14.792969 0.683594 9.597656 0.683594 Z M 9.597656 0.683594 " clip-rule="nonzero"/></clipPath><clipPath id="1e5b2c695f"><rect x="0" width="20" y="0" height="11"/></clipPath><clipPath id="ee09c9e5e0"><path d="M 101.097656 66.660156 L 124.199219 66.660156 L 124.199219 78.582031 L 101.097656 78.582031 Z M 101.097656 66.660156 " clip-rule="nonzero"/></clipPath><clipPath id="5cd0cfb9ba"><path d="M 23.164062 15 L 113.332031 15 L 113.332031 105.160156 L 23.164062 105.160156 Z M 23.164062 15 " clip-rule="nonzero"/></clipPath><clipPath id="8d7c201d41"><path d="M 51 53 L 90.214844 53 L 90.214844 90 L 51 90 Z M 51 53 " clip-rule="nonzero"/></clipPath><clipPath id="96decd8923"><path d="M 18 53 L 54 53 L 54 90.066406 L 18 90.066406 Z M 18 53 " clip-rule="nonzero"/></clipPath><clipPath id="38127d49d4"><path d="M 0.164062 41 L 30 41 L 30 75 L 0.164062 75 Z M 0.164062 41 " clip-rule="nonzero"/></clipPath><clipPath id="ced9fd4a2e"><path d="M 0.164062 11 L 30 11 L 30 42 L 0.164062 42 Z M 0.164062 11 " clip-rule="nonzero"/></clipPath><clipPath id="4af0d2e092"><path d="M 15 0.0234375 L 63 0.0234375 L 63 23 L 15 23 Z M 15 0.0234375 " clip-rule="nonzero"/></clipPath><clipPath id="587610d62c"><rect x="0" width="91" y="0" height="91"/></clipPath><clipPath id="ba74d76082"><path d="M 24.472656 13.199219 L 112.40625 13.199219 L 112.40625 104.109375 L 24.472656 104.109375 Z M 24.472656 13.199219 " clip-rule="nonzero"/></clipPath><clipPath id="2e87f1addc"><path d="M 0.472656 43 L 30 43 L 30 76 L 0.472656 76 Z M 0.472656 43 " clip-rule="nonzero"/></clipPath><clipPath id="3008c08665"><path d="M 0.472656 13 L 29 13 L 29 44 L 0.472656 44 Z M 0.472656 13 " clip-rule="nonzero"/></clipPath><clipPath id="ee9cc1917f"><rect x="0" width="89" y="0" height="92"/></clipPath></defs><g clip-path="url(#2ffa0b6142)"><g clip-path="url(#677287c2f1)"><g transform="matrix(1, 0, 0, 1, 98, 43)"><g clip-path="url(#b66ceb8c85)"><g clip-path="url(#d8226f2cf5)"><g clip-path="url(#44fa158e2d)"><path fill="#ffffff" d="M 0.128906 0.84375 L 10.800781 0.84375 L 10.800781 11.515625 L 0.128906 11.515625 Z M 0.128906 0.84375 " fill-opacity="1" fill-rule="nonzero"/></g></g></g></g></g></g><g clip-path="url(#f967098a9a)"><g clip-path="url(#e991daf3d8)"><path fill="#ffffff" d="M 90.894531 53.289062 C 91.285156 41.914062 100.628906 32.816406 112.097656 32.816406 C 123.566406 32.816406 132.90625 41.914062 133.300781 53.289062 L 139.5 53.289062 C 139.105469 38.496094 126.988281 26.625 112.101562 26.625 C 97.210938 26.625 85.097656 38.496094 84.703125 53.289062 L 90.902344 53.289062 Z M 90.894531 53.289062 " fill-opacity="1" fill-rule="evenodd"/></g></g><g clip-path="url(#753955b43f)"><g clip-path="url(#f0fd3b6df9)"><path fill="#000000" d="M 93.179688 52.011719 C 93.53125 41.566406 101.917969 33.210938 112.214844 33.210938 C 122.511719 33.210938 130.898438 41.566406 131.25 52.011719 L 136.816406 52.011719 C 136.460938 38.425781 125.585938 27.523438 112.21875 27.523438 C 98.851562 27.523438 87.976562 38.425781 87.621094 52.011719 L 93.183594 52.011719 Z M 93.179688 52.011719 " fill-opacity="1" fill-rule="evenodd"/></g></g><g clip-path="url(#e448642aa5)"><g clip-path="url(#a2f38cbc18)"><g transform="matrix(1, 0, 0, 1, 98, 44)"><g clip-path="url(#af4ec2ad56)"><g clip-path="url(#7b9e771b2b)"><g clip-path="url(#509a5e10dc)"><path fill="#000000" d="M 0.65625 0.371094 L 10.273438 0.371094 L 10.273438 9.988281 L 0.65625 9.988281 Z M 0.65625 0.371094 " fill-opacity="1" fill-rule="nonzero"/></g></g></g></g></g></g><g clip-path="url(#81da42e48b)"><g clip-path="url(#86fa25f3d8)"><g transform="matrix(1, 0, 0, 1, 115, 43)"><g clip-path="url(#a928316f92)"><g clip-path="url(#c145bfd51f)"><g clip-path="url(#7317076eb3)"><path fill="#ffffff" d="M 0.976562 0.84375 L 11.648438 0.84375 L 11.648438 11.515625 L 0.976562 11.515625 Z M 0.976562 0.84375 " fill-opacity="1" fill-rule="nonzero"/></g></g></g></g></g></g><g clip-path="url(#f56e9ef07a)"><g clip-path="url(#a64a03c1b3)"><g transform="matrix(1, 0, 0, 1, 116, 44)"><g clip-path="url(#0e750f2b9a)"><g clip-path="url(#dc744b10b9)"><g clip-path="url(#df9779fc20)"><path fill="#000000" d="M 0.503906 0.371094 L 10.121094 0.371094 L 10.121094 9.988281 L 0.503906 9.988281 Z M 0.503906 0.371094 " fill-opacity="1" fill-rule="nonzero"/></g></g></g></g></g></g><g clip-path="url(#f25b7c045d)"><g transform="matrix(1, 0, 0, 1, 111, 15)"><g clip-path="url(#eeabd3539f)"><g clip-path="url(#3ce76ee7aa)"><path fill="#ffffff" d="M 24.828125 54.230469 L 1.769531 72.929688 C 0.644531 73.914062 0.644531 75.601562 1.769531 76.585938 C 11.890625 85.304688 23.140625 89.378906 34.105469 89.800781 L 39.308594 59.152344 C 35.230469 58.589844 31.152344 56.902344 27.636719 54.089844 C 26.792969 53.527344 25.667969 53.667969 24.828125 54.230469 Z M 24.828125 54.230469 " fill-opacity="1" fill-rule="nonzero"/></g><path fill="#ffffff" d="M 42.261719 59.433594 L 37.058594 89.941406 C 50.414062 89.800781 63.066406 84.742188 72.910156 76.585938 L 59.132812 53.105469 C 56.320312 55.636719 52.804688 57.605469 48.867188 58.730469 C 46.757812 59.152344 44.507812 59.433594 42.261719 59.433594 Z M 42.261719 59.433594 " fill-opacity="1" fill-rule="nonzero"/><g clip-path="url(#9e9b3d1017)"><path fill="#ffffff" d="M 61.238281 50.859375 L 75.160156 74.617188 C 75.722656 74.054688 76.285156 73.492188 76.988281 72.929688 C 84.578125 65.199219 89.78125 55.214844 90.765625 44.53125 L 66.441406 41.15625 C 66.441406 41.4375 66.300781 41.71875 66.300781 42 C 65.316406 45.234375 63.628906 48.1875 61.238281 50.859375 Z M 61.238281 50.859375 " fill-opacity="1" fill-rule="nonzero"/></g><path fill="#ffffff" d="M 36.074219 24.425781 L 25.949219 11.914062 C 16.390625 22.878906 16.8125 39.609375 27.355469 50.015625 C 33.542969 56.199219 41.136719 57.605469 48.023438 55.636719 C 61.660156 51.984375 69.816406 36.65625 58.289062 25.269531 C 49.148438 16.273438 33.402344 24.425781 36.355469 35.25 C 39.589844 46.921875 53.085938 43.265625 52.523438 35.390625 C 52.523438 34.546875 53.085938 33.847656 53.929688 33.847656 C 54.773438 33.847656 55.476562 34.410156 55.476562 35.25 C 56.320312 47.203125 37.621094 50.859375 33.542969 36.234375 C 32.417969 32.019531 33.261719 27.800781 36.074219 24.425781 Z M 36.074219 24.425781 " fill-opacity="1" fill-rule="nonzero"/><g clip-path="url(#72558ddcd5)"><path fill="#ffffff" d="M 66.722656 38.203125 L 90.90625 41.4375 C 90.90625 41.296875 90.90625 41.15625 90.90625 41.015625 C 90.90625 31.035156 86.96875 20.769531 77.691406 11.070312 L 61.519531 24.285156 C 65.175781 28.503906 67.003906 33.285156 66.722656 38.203125 Z M 66.722656 38.203125 " fill-opacity="1" fill-rule="nonzero"/></g><g clip-path="url(#5b04a37a78)"><path fill="#ffffff" d="M 28.058594 9.804688 L 38.183594 22.316406 C 44.226562 17.253906 53.226562 17.253906 59.273438 22.316406 L 75.441406 9.101562 C 61.941406 -2.988281 41.277344 -2.707031 28.058594 9.804688 Z M 28.058594 9.804688 " fill-opacity="1" fill-rule="nonzero"/></g></g></g></g><g clip-path="url(#082a9cb015)"><g transform="matrix(1, 0, 0, 1, 113, 13)"><g clip-path="url(#17e2047b4a)"><g clip-path="url(#5fa0193814)"><path fill="#000000" d="M 23.605469 55.996094 L 1.144531 74.265625 C 0.046875 75.226562 0.046875 76.875 1.144531 77.835938 C 11.003906 86.351562 21.960938 90.335938 32.644531 90.746094 L 37.714844 60.800781 C 33.742188 60.253906 29.769531 58.605469 26.34375 55.859375 C 25.523438 55.308594 24.429688 55.445312 23.605469 55.996094 Z M 23.605469 55.996094 " fill-opacity="1" fill-rule="nonzero"/></g><g clip-path="url(#e33d95802a)"><path fill="#000000" d="M 40.589844 61.078125 L 35.523438 90.882812 C 48.535156 90.746094 60.859375 85.800781 70.449219 77.835938 L 57.027344 54.894531 C 54.285156 57.367188 50.863281 59.292969 47.027344 60.390625 C 44.972656 60.800781 42.78125 61.078125 40.589844 61.078125 Z M 40.589844 61.078125 " fill-opacity="1" fill-rule="nonzero"/></g><g clip-path="url(#7464619c8d)"><path fill="#000000" d="M 59.082031 52.699219 L 72.640625 75.914062 C 73.1875 75.363281 73.734375 74.8125 74.421875 74.265625 C 81.816406 66.710938 86.882812 56.957031 87.84375 46.515625 L 64.148438 43.21875 C 64.148438 43.496094 64.011719 43.769531 64.011719 44.042969 C 63.050781 47.203125 61.410156 50.089844 59.082031 52.699219 Z M 59.082031 52.699219 " fill-opacity="1" fill-rule="nonzero"/></g><path fill="#000000" d="M 34.5625 26.875 L 24.703125 14.648438 C 15.386719 25.363281 15.800781 41.710938 26.070312 51.875 C 32.097656 57.917969 39.496094 59.292969 46.207031 57.367188 C 59.492188 53.796875 67.433594 38.824219 56.203125 27.699219 C 47.300781 18.90625 31.960938 26.875 34.835938 37.453125 C 37.988281 48.851562 51.136719 45.28125 50.589844 37.589844 C 50.589844 36.765625 51.136719 36.078125 51.957031 36.078125 C 52.78125 36.078125 53.464844 36.628906 53.464844 37.453125 C 54.285156 49.128906 36.070312 52.699219 32.097656 38.414062 C 31.003906 34.292969 31.824219 30.171875 34.5625 26.875 Z M 34.5625 26.875 " fill-opacity="1" fill-rule="nonzero"/><g clip-path="url(#82b26dc144)"><path fill="#000000" d="M 64.421875 40.335938 L 87.980469 43.496094 C 87.980469 43.359375 87.980469 43.21875 87.980469 43.082031 C 87.980469 33.332031 84.144531 23.304688 75.105469 13.824219 L 59.355469 26.738281 C 62.914062 30.859375 64.695312 35.527344 64.421875 40.335938 Z M 64.421875 40.335938 " fill-opacity="1" fill-rule="nonzero"/></g><path fill="#000000" d="M 26.757812 12.589844 L 36.617188 24.8125 C 42.507812 19.871094 51.273438 19.871094 57.164062 24.8125 L 72.914062 11.902344 C 59.765625 0.0898438 39.632812 0.363281 26.757812 12.589844 Z M 26.757812 12.589844 " fill-opacity="1" fill-rule="nonzero"/></g></g></g><g clip-path="url(#2b71afd4a1)"><path fill="#ffffff" d="M 112.671875 79.769531 C 121.546875 79.804688 128.773438 72.640625 128.816406 63.757812 L 96.660156 63.621094 C 96.625 72.496094 103.789062 79.730469 112.671875 79.769531 Z M 112.671875 79.769531 " fill-opacity="1" fill-rule="nonzero"/></g><g clip-path="url(#3a9ff87f78)"><path fill="#000000" d="M 112.527344 78.558594 C 120.128906 78.585938 126.316406 72.320312 126.351562 64.550781 L 98.820312 64.429688 C 98.792969 72.195312 104.925781 78.519531 112.527344 78.558594 Z M 112.527344 78.558594 " fill-opacity="1" fill-rule="nonzero"/></g><g clip-path="url(#7cc443d0a9)"><g clip-path="url(#de9a5d43c6)"><g transform="matrix(1, 0, 0, 1, 103, 67)"><g clip-path="url(#1e5b2c695f)"><g clip-path="url(#5ebb1a15be)"><g clip-path="url(#8a7fe2b60c)"><path fill="#f6baa6" d="M 0.1875 0.683594 L 19.015625 0.683594 L 19.015625 10.378906 L 0.1875 10.378906 Z M 0.1875 0.683594 " fill-opacity="1" fill-rule="nonzero"/></g></g></g></g></g></g><g clip-path="url(#ee09c9e5e0)"><path fill="#000000" d="M 124.191406 66.96875 C 124.191406 73.414062 119.035156 78.570312 112.589844 78.570312 C 106.144531 78.570312 100.988281 73.414062 100.988281 66.96875 L 102.21875 66.96875 C 102.21875 72.742188 106.816406 77.339844 112.589844 77.339844 C 118.359375 77.339844 122.960938 72.742188 122.960938 66.96875 Z M 124.191406 66.96875 " fill-opacity="1" fill-rule="nonzero"/></g><g clip-path="url(#5cd0cfb9ba)"><g transform="matrix(1, 0, 0, 1, 23, 15)"><g clip-path="url(#587610d62c)"><g clip-path="url(#8d7c201d41)"><path fill="#ffffff" d="M 66.148438 54.292969 L 89.207031 72.992188 C 90.332031 73.976562 90.332031 75.664062 89.207031 76.648438 C 79.082031 85.367188 67.835938 89.441406 56.871094 89.863281 L 51.667969 59.214844 C 55.746094 58.652344 59.824219 56.964844 63.335938 54.152344 C 64.179688 53.589844 65.304688 53.730469 66.148438 54.292969 Z M 66.148438 54.292969 " fill-opacity="1" fill-rule="nonzero"/></g><g clip-path="url(#96decd8923)"><path fill="#ffffff" d="M 48.714844 59.496094 L 53.917969 90.003906 C 40.5625 89.863281 27.90625 84.804688 18.066406 76.648438 L 31.84375 53.167969 C 34.65625 55.699219 38.171875 57.667969 42.109375 58.792969 C 44.214844 59.214844 46.464844 59.496094 48.714844 59.496094 Z M 48.714844 59.496094 " fill-opacity="1" fill-rule="nonzero"/></g><g clip-path="url(#38127d49d4)"><path fill="#ffffff" d="M 29.734375 50.921875 L 15.816406 74.679688 C 15.253906 74.117188 14.691406 73.554688 13.988281 72.992188 C 6.398438 65.261719 1.195312 55.277344 0.210938 44.59375 L 24.535156 41.21875 C 24.535156 41.5 24.675781 41.78125 24.675781 42.0625 C 25.65625 45.296875 27.34375 48.25 29.734375 50.921875 Z M 29.734375 50.921875 " fill-opacity="1" fill-rule="nonzero"/></g><path fill="#ffffff" d="M 54.902344 24.488281 L 65.023438 11.976562 C 74.585938 22.941406 74.164062 39.671875 63.617188 50.078125 C 57.433594 56.261719 49.839844 57.667969 42.953125 55.699219 C 29.3125 52.046875 21.160156 36.71875 32.6875 25.332031 C 41.828125 16.335938 57.574219 24.488281 54.621094 35.3125 C 51.386719 46.984375 37.890625 43.328125 38.453125 35.453125 C 38.453125 34.613281 37.890625 33.910156 37.046875 33.910156 C 36.203125 33.910156 35.5 34.472656 35.5 35.3125 C 34.65625 47.265625 53.355469 50.921875 57.433594 36.296875 C 58.558594 32.082031 57.714844 27.863281 54.902344 24.488281 Z M 54.902344 24.488281 " fill-opacity="1" fill-rule="nonzero"/><g clip-path="url(#ced9fd4a2e)"><path fill="#ffffff" d="M 24.253906 38.265625 L 0.0703125 41.5 C 0.0703125 41.359375 0.0703125 41.21875 0.0703125 41.078125 C 0.0703125 31.097656 4.007812 20.832031 13.285156 11.132812 L 29.453125 24.347656 C 25.796875 28.566406 23.972656 33.347656 24.253906 38.265625 Z M 24.253906 38.265625 " fill-opacity="1" fill-rule="nonzero"/></g><g clip-path="url(#4af0d2e092)"><path fill="#ffffff" d="M 62.914062 9.867188 L 52.792969 22.378906 C 46.746094 17.320312 37.75 17.320312 31.703125 22.378906 L 15.535156 9.164062 C 29.03125 -2.925781 49.699219 -2.644531 62.914062 9.867188 Z M 62.914062 9.867188 " fill-opacity="1" fill-rule="nonzero"/></g></g></g></g><g clip-path="url(#ba74d76082)"><g transform="matrix(1, 0, 0, 1, 24, 13)"><g clip-path="url(#ee9cc1917f)"><path fill="#000000" d="M 64.695312 56.058594 L 87.160156 74.328125 C 88.253906 75.289062 88.253906 76.9375 87.160156 77.898438 C 77.296875 86.414062 66.339844 90.398438 55.65625 90.808594 L 50.589844 60.867188 C 54.5625 60.316406 58.535156 58.667969 61.957031 55.921875 C 62.777344 55.371094 63.875 55.507812 64.695312 56.058594 Z M 64.695312 56.058594 " fill-opacity="1" fill-rule="nonzero"/><path fill="#000000" d="M 47.714844 61.140625 L 52.78125 90.949219 C 39.769531 90.808594 27.441406 85.863281 17.855469 77.898438 L 31.277344 54.957031 C 34.015625 57.429688 37.441406 59.355469 41.277344 60.453125 C 43.328125 60.867188 45.519531 61.140625 47.714844 61.140625 Z M 47.714844 61.140625 " fill-opacity="1" fill-rule="nonzero"/><g clip-path="url(#2e87f1addc)"><path fill="#000000" d="M 29.222656 52.761719 L 15.664062 75.976562 C 15.113281 75.425781 14.566406 74.875 13.882812 74.328125 C 6.484375 66.773438 1.417969 57.019531 0.460938 46.578125 L 24.15625 43.28125 C 24.15625 43.558594 24.292969 43.832031 24.292969 44.105469 C 25.25 47.265625 26.894531 50.152344 29.222656 52.761719 Z M 29.222656 52.761719 " fill-opacity="1" fill-rule="nonzero"/></g><path fill="#000000" d="M 53.738281 26.9375 L 63.601562 14.710938 C 72.914062 25.425781 72.503906 41.773438 62.230469 51.9375 C 56.203125 57.980469 48.808594 59.355469 42.097656 57.429688 C 28.8125 53.859375 20.867188 38.886719 32.097656 27.761719 C 41 18.96875 56.34375 26.9375 53.464844 37.515625 C 50.316406 48.914062 37.167969 45.34375 37.714844 37.652344 C 37.714844 36.828125 37.167969 36.140625 36.34375 36.140625 C 35.523438 36.140625 34.839844 36.691406 34.839844 37.515625 C 34.015625 49.191406 52.234375 52.761719 56.203125 38.476562 C 57.300781 34.355469 56.480469 30.234375 53.738281 26.9375 Z M 53.738281 26.9375 " fill-opacity="1" fill-rule="nonzero"/><g clip-path="url(#3008c08665)"><path fill="#000000" d="M 23.878906 40.398438 L 0.324219 43.558594 C 0.324219 43.421875 0.324219 43.28125 0.324219 43.144531 C 0.324219 33.394531 4.15625 23.367188 13.199219 13.886719 L 28.949219 26.800781 C 25.386719 30.921875 23.605469 35.589844 23.878906 40.398438 Z M 23.878906 40.398438 " fill-opacity="1" fill-rule="nonzero"/></g><path fill="#000000" d="M 61.546875 12.652344 L 51.683594 24.875 C 45.796875 19.933594 37.03125 19.933594 31.140625 24.875 L 15.390625 11.964844 C 28.539062 0.152344 48.671875 0.425781 61.546875 12.652344 Z M 61.546875 12.652344 " fill-opacity="1" fill-rule="nonzero"/></g></g></g></svg>